<?xml version="1.0" standalone="no"?>
<!DOCTYPE svg PUBLIC "-//W3C//DTD SVG 20010904//EN"
 "http://www.w3.org/TR/2001/REC-SVG-20010904/DTD/svg10.dtd">
<svg version="1.0" xmlns="http://www.w3.org/2000/svg"
 width="32" height="32" viewBox="0 0 50.000000 46.000000"
 preserveAspectRatio="xMidYMid meet">

<g transform="translate(0.000000,46.000000) scale(0.100000,-0.100000)"
fill="#000000" stroke="none">
<path d="M202 428 c-81 -18 -162 -119 -162 -203 0 -87 80 -185 167 -203 101
-22 194 22 238 113 22 45 27 65 23 105 -13 131 -135 217 -266 188z m136 -39
c86 -42 126 -153 84 -235 -23 -46 -47 -70 -56 -56 -3 6 1 15 9 22 9 7 15 29
15 50 0 72 -77 102 -123 48 -21 -25 -19 -73 4 -94 10 -9 15 -24 12 -35 -8 -30
-20 -23 -27 16 -4 20 -16 39 -27 46 l-21 11 21 19 c12 11 22 24 22 29 2 14 6
30 9 33 7 8 5 47 -3 47 -5 0 -7 7 -3 15 3 9 0 15 -9 15 -8 0 -15 7 -15 15 0
18 -16 20 -26 4 -4 -8 -9 -7 -16 2 -7 11 -11 11 -15 2 -2 -7 -11 -13 -19 -13
-8 0 -14 -7 -14 -15 0 -8 -6 -15 -13 -15 -11 0 -15 -39 -7 -60 3 -7 7 -23 8
-36 1 -6 14 -17 30 -24 27 -12 27 -13 5 -22 -12 -6 -24 -21 -28 -35 -8 -33
-28 -16 -51 43 -33 85 5 182 88 223 55 27 110 27 166 0z"/>
</g>
</svg>
